<svg xmlns="http://www.w3.org/2000/svg" x="0px" y="0px"
width="50" height="50"
viewBox="0 0 172 172"
style=" fill:#000000;"><g fill="none" fill-rule="nonzero" stroke="none" stroke-width="1" stroke-linecap="butt" stroke-linejoin="miter" stroke-miterlimit="10" stroke-dasharray="" stroke-dashoffset="0" font-family="none" font-weight="none" font-size="none" text-anchor="none" style="mix-blend-mode: normal"><path d="M0,172v-172h172v172z" fill="none"></path><g fill="#ffffff"><path d="M83.94406,30.96c-22.70938,0 -44.03469,1.72 -55.38938,4.12531c-7.56531,1.72 -14.10937,6.88 -15.48,14.79469c-1.37062,8.25063 -2.75469,20.64 -2.75469,36.12c0,15.48 1.37063,27.52 3.09063,36.12c1.38406,7.56531 7.91469,13.07469 15.48,14.79469c12.05344,2.40531 32.68,4.12531 55.38937,4.12531c22.70938,0 43.33594,-1.72 55.37594,-4.12531c7.57875,-1.72 14.10938,-6.88 15.48,-14.79469c1.38406,-8.6 3.10406,-20.97594 3.44,-36.45594c0,-15.48 -1.72,-27.86938 -3.44,-36.46938c-1.37062,-7.56531 -7.90125,-13.07469 -15.48,-14.79469c-12.04,-1.72 -33.01594,-3.44 -55.71187,-3.44zM83.94406,37.84c24.76531,0 44.70656,2.05594 54.34125,3.77594c5.16,1.38406 9.28531,4.82406 9.97062,9.29875c2.06938,11.00531 3.44,22.70938 3.44,34.74938c-0.33594,14.78125 -2.05594,26.82125 -3.44,35.42125c-1.02125,6.53062 -7.90125,8.6 -9.97062,9.29875c-12.38938,2.40531 -33.02938,4.11187 -53.66938,4.11187c-20.64,0 -41.61594,-1.37062 -53.65594,-4.11187c-5.16,-1.38406 -9.28531,-4.82406 -9.97062,-9.29875c-2.75469,-9.63469 -3.78938,-22.36 -3.78938,-35.08531c0,-15.82937 1.38406,-27.52 2.75469,-34.73594c1.03469,-6.54406 8.25063,-8.61344 9.97063,-9.29875c11.35469,-2.40531 32.34406,-4.12531 54.01875,-4.12531zM65.36,58.48v55.04l48.16,-27.52zM72.24,70.18406l27.52,15.81594l-27.52,15.81594z"></path></g></g></svg>